<svg width="156" height="48" viewBox="0 0 156 48" fill="none" xmlns="http://www.w3.org/2000/svg">
<rect width="156" height="48" rx="4" fill="#E8F5E9"/>
<path d="M33.8075 30V18.3636H37.7393C38.6484 18.3636 39.3946 18.5189 39.978 18.8295C40.5613 19.1364 40.9931 19.5587 41.2734 20.0966C41.5537 20.6345 41.6939 21.2462 41.6939 21.9318C41.6939 22.6174 41.5537 23.2254 41.2734 23.7557C40.9931 24.286 40.5632 24.7027 39.9837 25.0057C39.4041 25.3049 38.6636 25.4545 37.7621 25.4545H34.5803V24.1818H37.7166C38.3378 24.1818 38.8378 24.0909 39.2166 23.9091C39.5992 23.7273 39.8757 23.4697 40.0462 23.1364C40.2204 22.7992 40.3075 22.3977 40.3075 21.9318C40.3075 21.4659 40.2204 21.0587 40.0462 20.7102C39.8719 20.3617 39.5935 20.0928 39.2109 19.9034C38.8284 19.7102 38.3227 19.6136 37.6939 19.6136H35.2166V30H33.8075ZM39.2848 24.7727L42.1484 30H40.5121L37.6939 24.7727H39.2848ZM47.4254 30.1818C46.5845 30.1818 45.8591 29.9962 45.2493 29.625C44.6432 29.25 44.1754 28.7273 43.8459 28.0568C43.5201 27.3826 43.3572 26.5985 43.3572 25.7045C43.3572 24.8106 43.5201 24.0227 43.8459 23.3409C44.1754 22.6553 44.6338 22.1212 45.2209 21.7386C45.8118 21.3523 46.5012 21.1591 47.2891 21.1591C47.7436 21.1591 48.1925 21.2348 48.6357 21.3864C49.0788 21.5379 49.4822 21.7841 49.8459 22.125C50.2095 22.4621 50.4993 22.9091 50.7152 23.4659C50.9311 24.0227 51.0391 24.7083 51.0391 25.5227V26.0909H44.3118V24.9318H49.6754C49.6754 24.4394 49.5769 24 49.38 23.6136C49.1868 23.2273 48.9103 22.9223 48.5504 22.6989C48.1944 22.4754 47.7739 22.3636 47.2891 22.3636C46.755 22.3636 46.2929 22.4962 45.9027 22.7614C45.5163 23.0227 45.219 23.3636 45.0107 23.7841C44.8023 24.2045 44.6982 24.6553 44.6982 25.1364V25.9091C44.6982 26.5682 44.8118 27.1269 45.0391 27.5852C45.2701 28.0398 45.5902 28.3864 45.9993 28.625C46.4084 28.8598 46.8838 28.9773 47.4254 28.9773C47.7777 28.9773 48.0959 28.928 48.38 28.8295C48.6679 28.7273 48.916 28.5758 49.1243 28.375C49.3326 28.1705 49.4936 27.9167 49.6072 27.6136L50.9027 27.9773C50.7663 28.4167 50.5372 28.803 50.2152 29.1364C49.8932 29.4659 49.4955 29.7235 49.022 29.9091C48.5485 30.0909 48.0163 30.1818 47.4254 30.1818ZM46.6072 20.0909L47.9936 17.4545H49.5618L47.7891 20.0909H46.6072ZM59.2607 23.2273L58.0561 23.5682C57.9804 23.3674 57.8686 23.1723 57.7209 22.983C57.5769 22.7898 57.38 22.6307 57.13 22.5057C56.88 22.3807 56.5599 22.3182 56.1697 22.3182C55.6357 22.3182 55.1906 22.4413 54.8345 22.6875C54.4822 22.9299 54.3061 23.2386 54.3061 23.6136C54.3061 23.947 54.4273 24.2102 54.6697 24.4034C54.9122 24.5966 55.291 24.7576 55.8061 24.8864L57.1016 25.2045C57.8819 25.3939 58.4633 25.6837 58.8459 26.0739C59.2285 26.4602 59.4197 26.9583 59.4197 27.5682C59.4197 28.0682 59.2758 28.5152 58.9879 28.9091C58.7038 29.303 58.3061 29.6136 57.7947 29.8409C57.2834 30.0682 56.6887 30.1818 56.0107 30.1818C55.1205 30.1818 54.3838 29.9886 53.8004 29.6023C53.2171 29.2159 52.8478 28.6515 52.6925 27.9091L53.9652 27.5909C54.0864 28.0606 54.3156 28.4129 54.6527 28.6477C54.9936 28.8826 55.4387 29 55.9879 29C56.6129 29 57.1091 28.8674 57.4766 28.6023C57.8478 28.3333 58.0334 28.0114 58.0334 27.6364C58.0334 27.3333 57.9273 27.0795 57.7152 26.875C57.5031 26.6667 57.1773 26.5114 56.7379 26.4091L55.2834 26.0682C54.4841 25.8788 53.897 25.5852 53.522 25.1875C53.1508 24.786 52.9652 24.2841 52.9652 23.6818C52.9652 23.1894 53.1035 22.7538 53.38 22.375C53.6603 21.9962 54.041 21.6989 54.522 21.483C55.0069 21.267 55.5561 21.1591 56.1697 21.1591C57.0334 21.1591 57.7114 21.3485 58.2038 21.7273C58.7 22.1061 59.0523 22.6061 59.2607 23.2273ZM65.0973 30.1818C64.2564 30.1818 63.531 29.9962 62.9212 29.625C62.3151 29.25 61.8473 28.7273 61.5178 28.0568C61.192 27.3826 61.0291 26.5985 61.0291 25.7045C61.0291 24.8106 61.192 24.0227 61.5178 23.3409C61.8473 22.6553 62.3056 22.1212 62.8928 21.7386C63.4837 21.3523 64.1731 21.1591 64.9609 21.1591C65.4155 21.1591 65.8643 21.2348 66.3075 21.3864C66.7507 21.5379 67.1541 21.7841 67.5178 22.125C67.8814 22.4621 68.1712 22.9091 68.3871 23.4659C68.603 24.0227 68.7109 24.7083 68.7109 25.5227V26.0909H61.9837V24.9318H67.3473C67.3473 24.4394 67.2488 24 67.0518 23.6136C66.8587 23.2273 66.5821 22.9223 66.2223 22.6989C65.8662 22.4754 65.4458 22.3636 64.9609 22.3636C64.4268 22.3636 63.9647 22.4962 63.5746 22.7614C63.1882 23.0227 62.8909 23.3636 62.6825 23.7841C62.4742 24.2045 62.37 24.6553 62.37 25.1364V25.9091C62.37 26.5682 62.4837 27.1269 62.7109 27.5852C62.942 28.0398 63.2621 28.3864 63.6712 28.625C64.0803 28.8598 64.5556 28.9773 65.0973 28.9773C65.4496 28.9773 65.7678 28.928 66.0518 28.8295C66.3397 28.7273 66.5878 28.5758 66.7962 28.375C67.0045 28.1705 67.1655 27.9167 67.2791 27.6136L68.5746 27.9773C68.4382 28.4167 68.209 28.803 67.8871 29.1364C67.5651 29.4659 67.1674 29.7235 66.6939 29.9091C66.2204 30.0909 65.6882 30.1818 65.0973 30.1818ZM70.7507 30V21.2727H72.0462V22.5909H72.1371C72.2962 22.1591 72.584 21.8087 73.0007 21.5398C73.4174 21.2708 73.8871 21.1364 74.4098 21.1364C74.5083 21.1364 74.6314 21.1383 74.7791 21.142C74.9268 21.1458 75.0386 21.1515 75.1143 21.1591V22.5227C75.0689 22.5114 74.9647 22.4943 74.8018 22.4716C74.6428 22.4451 74.4742 22.4318 74.2962 22.4318C73.8719 22.4318 73.4931 22.5208 73.1598 22.6989C72.8303 22.8731 72.5689 23.1155 72.3757 23.4261C72.1863 23.733 72.0916 24.0833 72.0916 24.4773V30H70.7507ZM84.1058 21.2727L80.8786 30H79.5149L76.2876 21.2727H77.7422L80.1513 28.2273H80.2422L82.6513 21.2727H84.1058ZM89.2223 30.1818C88.3814 30.1818 87.656 29.9962 87.0462 29.625C86.4401 29.25 85.9723 28.7273 85.6428 28.0568C85.317 27.3826 85.1541 26.5985 85.1541 25.7045C85.1541 24.8106 85.317 24.0227 85.6428 23.3409C85.9723 22.6553 86.4306 22.1212 87.0178 21.7386C87.6087 21.3523 88.2981 21.1591 89.0859 21.1591C89.5405 21.1591 89.9893 21.2348 90.4325 21.3864C90.8757 21.5379 91.2791 21.7841 91.6428 22.125C92.0064 22.4621 92.2962 22.9091 92.5121 23.4659C92.728 24.0227 92.8359 24.7083 92.8359 25.5227V26.0909H86.1087V24.9318H91.4723C91.4723 24.4394 91.3738 24 91.1768 23.6136C90.9837 23.2273 90.7071 22.9223 90.3473 22.6989C89.9912 22.4754 89.5708 22.3636 89.0859 22.3636C88.5518 22.3636 88.0897 22.4962 87.6996 22.7614C87.3132 23.0227 87.0159 23.3636 86.8075 23.7841C86.5992 24.2045 86.495 24.6553 86.495 25.1364V25.9091C86.495 26.5682 86.6087 27.1269 86.8359 27.5852C87.067 28.0398 87.3871 28.3864 87.7962 28.625C88.2053 28.8598 88.6806 28.9773 89.2223 28.9773C89.5746 28.9773 89.8928 28.928 90.1768 28.8295C90.4647 28.7273 90.7128 28.5758 90.9212 28.375C91.1295 28.1705 91.2905 27.9167 91.4041 27.6136L92.6996 27.9773C92.5632 28.4167 92.334 28.803 92.0121 29.1364C91.6901 29.4659 91.2924 29.7235 90.8189 29.9091C90.3454 30.0909 89.8132 30.1818 89.2223 30.1818ZM94.8757 30V21.2727H96.1712V22.5909H96.2621C96.4212 22.1591 96.709 21.8087 97.1257 21.5398C97.5424 21.2708 98.0121 21.1364 98.5348 21.1364C98.6333 21.1364 98.7564 21.1383 98.9041 21.142C99.0518 21.1458 99.1636 21.1515 99.2393 21.1591V22.5227C99.1939 22.5114 99.0897 22.4943 98.9268 22.4716C98.7678 22.4451 98.5992 22.4318 98.4212 22.4318C97.9969 22.4318 97.6181 22.5208 97.2848 22.6989C96.9553 22.8731 96.6939 23.1155 96.5007 23.4261C96.3113 23.733 96.2166 24.0833 96.2166 24.4773V30H94.8757Z" fill="#4CAF4F"/>
<path d="M119.25 27.0002L121.72 24.5305C122.013 24.2376 122.013 23.7627 121.72 23.4698L119.25 21.0001M121.5 24.0002L110.5 24.0002" stroke="#4CAF4F" stroke-width="1.1" stroke-linecap="round"/>
</svg>
