<svg width="154" height="48" viewBox="0 0 154 48" fill="none" xmlns="http://www.w3.org/2000/svg">
<rect width="154" height="48" rx="4" fill="#E53835"/>
<path d="M43.759 19.3153V17.9091H53.5771V19.3153H49.4607V31H47.8754V19.3153H43.759ZM58.5118 31.2045C57.5658 31.2045 56.7497 30.9957 56.0637 30.5781C55.3818 30.1562 54.8556 29.5682 54.4848 28.8139C54.1183 28.0554 53.9351 27.1733 53.9351 26.1676C53.9351 25.1619 54.1183 24.2756 54.4848 23.5085C54.8556 22.7372 55.3712 22.1364 56.0317 21.706C56.6965 21.2713 57.472 21.054 58.3584 21.054C58.8698 21.054 59.3747 21.1392 59.8733 21.3097C60.3719 21.4801 60.8257 21.7571 61.2348 22.1406C61.6439 22.5199 61.9699 23.0227 62.2128 23.6491C62.4557 24.2756 62.5771 25.0469 62.5771 25.9631V26.6023H55.009V25.2983H61.0431C61.0431 24.7443 60.9323 24.25 60.7107 23.8153C60.4933 23.3807 60.1823 23.0376 59.7774 22.7862C59.3769 22.5348 58.9039 22.4091 58.3584 22.4091C57.7575 22.4091 57.2377 22.5582 56.7987 22.8565C56.3641 23.1506 56.0296 23.5341 55.7952 24.0071C55.5608 24.4801 55.4436 24.9872 55.4436 25.5284V26.3977C55.4436 27.1392 55.5715 27.7678 55.8271 28.2834C56.0871 28.7947 56.4472 29.1847 56.9074 29.4531C57.3676 29.7173 57.9024 29.8494 58.5118 29.8494C58.9081 29.8494 59.2661 29.794 59.5857 29.6832C59.9095 29.5682 60.1887 29.3977 60.423 29.1719C60.6574 28.9418 60.8385 28.6562 60.9664 28.3153L62.4237 28.7244C62.2703 29.2188 62.0125 29.6534 61.6503 30.0284C61.2881 30.3991 60.8406 30.6889 60.308 30.8977C59.7753 31.1023 59.1766 31.2045 58.5118 31.2045ZM64.8719 31V21.1818H66.3293V22.6648H66.4316C66.6105 22.179 66.9344 21.7848 67.4031 21.4822C67.8719 21.1797 68.4003 21.0284 68.9884 21.0284C69.0992 21.0284 69.2377 21.0305 69.4039 21.0348C69.57 21.0391 69.6958 21.0455 69.781 21.054V22.5881C69.7298 22.5753 69.6127 22.5561 69.4294 22.5305C69.2504 22.5007 69.0608 22.4858 68.8605 22.4858C68.3833 22.4858 67.9571 22.5859 67.5821 22.7862C67.2114 22.9822 66.9173 23.255 66.7 23.6044C66.4869 23.9496 66.3804 24.3437 66.3804 24.7869V31H64.8719ZM71.5692 31V21.1818H73.0265V22.7159H73.1544C73.3589 22.1918 73.6892 21.7848 74.1452 21.495C74.6011 21.201 75.1487 21.054 75.7879 21.054C76.4356 21.054 76.9747 21.201 77.4051 21.495C77.8398 21.7848 78.1785 22.1918 78.4214 22.7159H78.5237C78.7751 22.2088 79.1523 21.8061 79.6551 21.5078C80.1579 21.2053 80.7609 21.054 81.464 21.054C82.3419 21.054 83.0599 21.3288 83.6182 21.8786C84.1764 22.424 84.4555 23.2741 84.4555 24.429V31H82.947V24.429C82.947 23.7045 82.7488 23.1868 82.3525 22.8757C81.9562 22.5646 81.4896 22.4091 80.9527 22.4091C80.2623 22.4091 79.7275 22.6179 79.3483 23.0355C78.969 23.4489 78.7794 23.973 78.7794 24.608V31H77.2453V24.2756C77.2453 23.7173 77.0642 23.2678 76.702 22.9268C76.3398 22.5817 75.8731 22.4091 75.3021 22.4091C74.9101 22.4091 74.5436 22.5135 74.2027 22.7223C73.866 22.9311 73.5933 23.2209 73.3845 23.5916C73.18 23.9581 73.0777 24.3821 73.0777 24.8636V31H71.5692ZM87.2137 31V21.1818H88.7222V31H87.2137ZM87.9807 19.5455C87.6867 19.5455 87.4331 19.4453 87.2201 19.245C87.0113 19.0447 86.9069 18.804 86.9069 18.5227C86.9069 18.2415 87.0113 18.0007 87.2201 17.8004C87.4331 17.6001 87.6867 17.5 87.9807 17.5C88.2748 17.5 88.5262 17.6001 88.735 17.8004C88.9481 18.0007 89.0546 18.2415 89.0546 18.5227C89.0546 18.804 88.9481 19.0447 88.735 19.245C88.5262 19.4453 88.2748 19.5455 87.9807 19.5455ZM92.9937 25.0938V31H91.4852V21.1818H92.9426V22.7159H93.0704C93.3005 22.2173 93.6499 21.8168 94.1187 21.5142C94.5874 21.2074 95.1926 21.054 95.934 21.054C96.5988 21.054 97.1805 21.1903 97.6791 21.4631C98.1776 21.7315 98.5654 22.1406 98.8424 22.6903C99.1194 23.2358 99.2579 23.9261 99.2579 24.7614V31H97.7494V24.8636C97.7494 24.0923 97.5491 23.4915 97.1485 23.0611C96.748 22.6264 96.1982 22.4091 95.4994 22.4091C95.0178 22.4091 94.5874 22.5135 94.2082 22.7223C93.8332 22.9311 93.537 23.2358 93.3197 23.6364C93.1024 24.0369 92.9937 24.5227 92.9937 25.0938ZM106.131 31.2045C105.185 31.2045 104.369 30.9957 103.683 30.5781C103.001 30.1562 102.475 29.5682 102.104 28.8139C101.737 28.0554 101.554 27.1733 101.554 26.1676C101.554 25.1619 101.737 24.2756 102.104 23.5085C102.475 22.7372 102.99 22.1364 103.651 21.706C104.316 21.2713 105.091 21.054 105.978 21.054C106.489 21.054 106.994 21.1392 107.492 21.3097C107.991 21.4801 108.445 21.7571 108.854 22.1406C109.263 22.5199 109.589 23.0227 109.832 23.6491C110.075 24.2756 110.196 25.0469 110.196 25.9631V26.6023H102.628V25.2983H108.662C108.662 24.7443 108.551 24.25 108.33 23.8153C108.112 23.3807 107.801 23.0376 107.397 22.7862C106.996 22.5348 106.523 22.4091 105.978 22.4091C105.377 22.4091 104.857 22.5582 104.418 22.8565C103.983 23.1506 103.649 23.5341 103.414 24.0071C103.18 24.4801 103.063 24.9872 103.063 25.5284V26.3977C103.063 27.1392 103.191 27.7678 103.446 28.2834C103.706 28.7947 104.066 29.1847 104.527 29.4531C104.987 29.7173 105.522 29.8494 106.131 29.8494C106.527 29.8494 106.885 29.794 107.205 29.6832C107.529 29.5682 107.808 29.3977 108.042 29.1719C108.277 28.9418 108.458 28.6562 108.585 28.3153L110.043 28.7244C109.889 29.2188 109.632 29.6534 109.269 30.0284C108.907 30.3991 108.46 30.6889 107.927 30.8977C107.394 31.1023 106.796 31.2045 106.131 31.2045ZM105.21 19.8523L106.77 16.8864H108.534L106.54 19.8523H105.21Z" fill="white"/>
</svg>
