<svg width="154" height="48" viewBox="0 0 154 48" fill="none" xmlns="http://www.w3.org/2000/svg">
<rect width="154" height="48" rx="4" fill="#E8F5E9"/>
<path d="M25.7327 31V17.9091H33.6333V19.3153H27.3179V23.7386H33.2242V25.1449H27.3179V29.5938H33.7355V31H25.7327ZM37.7945 25.0938V31H36.286V21.1818H37.7433V22.7159H37.8712C38.1013 22.2173 38.4507 21.8168 38.9195 21.5142C39.3882 21.2074 39.9933 21.054 40.7348 21.054C41.3996 21.054 41.9813 21.1903 42.4798 21.4631C42.9784 21.7315 43.3662 22.1406 43.6432 22.6903C43.9202 23.2358 44.0587 23.9261 44.0587 24.7614V31H42.5502V24.8636C42.5502 24.0923 42.3499 23.4915 41.9493 23.0611C41.5487 22.6264 40.999 22.4091 40.3002 22.4091C39.8186 22.4091 39.3882 22.5135 39.009 22.7223C38.634 22.9311 38.3378 23.2358 38.1205 23.6364C37.9031 24.0369 37.7945 24.5227 37.7945 25.0938ZM55.8664 31.2045C54.9459 31.2045 54.1533 30.9872 53.4885 30.5526C52.8238 30.1179 52.3124 29.5192 51.9545 28.7564C51.5965 27.9936 51.4175 27.1222 51.4175 26.142C51.4175 25.1449 51.6008 24.2649 51.9672 23.5021C52.338 22.7351 52.8536 22.1364 53.5141 21.706C54.1789 21.2713 54.9545 21.054 55.8408 21.054C56.5312 21.054 57.1533 21.1818 57.7073 21.4375C58.2613 21.6932 58.7151 22.0511 59.0688 22.5114C59.4225 22.9716 59.642 23.5085 59.7272 24.1222H58.2187C58.1036 23.6747 57.8479 23.2784 57.4516 22.9332C57.0596 22.5838 56.5312 22.4091 55.8664 22.4091C55.2783 22.4091 54.7627 22.5625 54.3195 22.8693C53.8806 23.1719 53.5376 23.6001 53.2904 24.1541C53.0475 24.7038 52.926 25.3494 52.926 26.0909C52.926 26.8494 53.0454 27.5099 53.284 28.0724C53.5269 28.6349 53.8678 29.0717 54.3067 29.3828C54.7499 29.6939 55.2698 29.8494 55.8664 29.8494C56.2584 29.8494 56.6143 29.7812 56.9339 29.6449C57.2535 29.5085 57.5241 29.3125 57.7457 29.0568C57.9672 28.8011 58.1249 28.4943 58.2187 28.1364H59.7272C59.642 28.7159 59.431 29.2379 59.0944 29.7024C58.762 30.1626 58.3209 30.5291 57.7712 30.8018C57.2258 31.0703 56.5908 31.2045 55.8664 31.2045ZM65.9211 31.2045C65.0347 31.2045 64.257 30.9936 63.588 30.5717C62.9232 30.1499 62.4033 29.5597 62.0283 28.8011C61.6576 28.0426 61.4722 27.1562 61.4722 26.142C61.4722 25.1193 61.6576 24.2266 62.0283 23.4638C62.4033 22.701 62.9232 22.1087 63.588 21.6868C64.257 21.2649 65.0347 21.054 65.9211 21.054C66.8074 21.054 67.583 21.2649 68.2478 21.6868C68.9168 22.1087 69.4367 22.701 69.8074 23.4638C70.1824 24.2266 70.3699 25.1193 70.3699 26.142C70.3699 27.1562 70.1824 28.0426 69.8074 28.8011C69.4367 29.5597 68.9168 30.1499 68.2478 30.5717C67.583 30.9936 66.8074 31.2045 65.9211 31.2045ZM65.9211 29.8494C66.5944 29.8494 67.1483 29.6768 67.583 29.3317C68.0177 28.9865 68.3394 28.5327 68.5482 27.9702C68.757 27.4077 68.8614 26.7983 68.8614 26.142C68.8614 25.4858 68.757 24.8743 68.5482 24.3075C68.3394 23.7408 68.0177 23.2827 67.583 22.9332C67.1483 22.5838 66.5944 22.4091 65.9211 22.4091C65.2478 22.4091 64.6938 22.5838 64.2591 22.9332C63.8245 23.2827 63.5028 23.7408 63.2939 24.3075C63.0851 24.8743 62.9807 25.4858 62.9807 26.142C62.9807 26.7983 63.0851 27.4077 63.2939 27.9702C63.5028 28.5327 63.8245 28.9865 64.2591 29.3317C64.6938 29.6768 65.2478 29.8494 65.9211 29.8494ZM78.8602 26.9858V21.1818H80.3687V31H78.8602V29.3381H78.7579C78.5278 29.8366 78.1698 30.2607 77.684 30.6101C77.1982 30.9553 76.5846 31.1278 75.8431 31.1278C75.2295 31.1278 74.684 30.9936 74.2068 30.7251C73.7295 30.4524 73.3545 30.0433 73.0818 29.4979C72.809 28.9482 72.6727 28.2557 72.6727 27.4205V21.1818H74.1812V27.3182C74.1812 28.0341 74.3815 28.6051 74.782 29.0312C75.1869 29.4574 75.7025 29.6705 76.3289 29.6705C76.7039 29.6705 77.0853 29.5746 77.4731 29.3828C77.8651 29.1911 78.1933 28.897 78.4575 28.5007C78.7259 28.1044 78.8602 27.5994 78.8602 26.9858ZM83.1317 31V21.1818H84.589V22.6648H84.6913C84.8703 22.179 85.1942 21.7848 85.6629 21.4822C86.1317 21.1797 86.6601 21.0284 87.2481 21.0284C87.3589 21.0284 87.4974 21.0305 87.6636 21.0348C87.8298 21.0391 87.9555 21.0455 88.0407 21.054V22.5881C87.9896 22.5753 87.8724 22.5561 87.6892 22.5305C87.5102 22.5007 87.3206 22.4858 87.1203 22.4858C86.643 22.4858 86.2169 22.5859 85.8419 22.7862C85.4711 22.9822 85.1771 23.255 84.9598 23.6044C84.7467 23.9496 84.6402 24.3437 84.6402 24.7869V31H83.1317ZM96.7835 23.3807L95.4284 23.7642C95.3431 23.5384 95.2174 23.3189 95.0512 23.1058C94.8893 22.8885 94.6677 22.7095 94.3865 22.5689C94.1052 22.4283 93.7451 22.358 93.3062 22.358C92.7053 22.358 92.2046 22.4964 91.8041 22.7734C91.4078 23.0462 91.2096 23.3935 91.2096 23.8153C91.2096 24.1903 91.346 24.4865 91.6187 24.7038C91.8914 24.9212 92.3176 25.1023 92.8971 25.2472L94.3545 25.6051C95.2323 25.8182 95.8865 26.1442 96.3169 26.5831C96.7472 27.0178 96.9624 27.5781 96.9624 28.2642C96.9624 28.8267 96.8005 29.3295 96.4767 29.7727C96.157 30.2159 95.7096 30.5653 95.1343 30.821C94.559 31.0767 93.89 31.2045 93.1272 31.2045C92.1258 31.2045 91.297 30.9872 90.6407 30.5526C89.9845 30.1179 89.569 29.483 89.3943 28.6477L90.8261 28.2898C90.9624 28.8182 91.2203 29.2145 91.5995 29.4787C91.983 29.7429 92.4838 29.875 93.1017 29.875C93.8048 29.875 94.363 29.7259 94.7764 29.4276C95.194 29.125 95.4028 28.7628 95.4028 28.3409C95.4028 28 95.2835 27.7145 95.0448 27.4844C94.8062 27.25 94.4397 27.0753 93.9454 26.9602L92.309 26.5767C91.4099 26.3636 90.7494 26.0334 90.3275 25.5859C89.9099 25.1342 89.7011 24.5696 89.7011 23.892C89.7011 23.3381 89.8566 22.848 90.1677 22.4219C90.483 21.9957 90.9113 21.6612 91.4525 21.4183C91.998 21.1754 92.6159 21.054 93.3062 21.054C94.2778 21.054 95.0406 21.267 95.5945 21.6932C96.1528 22.1193 96.5491 22.6818 96.7835 23.3807Z" fill="#4CAF4F"/>
<path d="M118 14L118 17" stroke="#4CAF4F" stroke-width="1.5" stroke-linecap="round" stroke-linejoin="round"/>
<path d="M118 31L118 34" stroke="#4CAF4F" stroke-width="1.5" stroke-linecap="round" stroke-linejoin="round"/>
<path d="M128 24L125 24" stroke="#4CAF4F" stroke-width="1.5" stroke-linecap="round" stroke-linejoin="round"/>
<path d="M111 24L108 24" stroke="#4CAF4F" stroke-width="1.5" stroke-linecap="round" stroke-linejoin="round"/>
<path d="M125.072 16.929L122.95 19.0503" stroke="#4CAF4F" stroke-width="1.5" stroke-linecap="round" stroke-linejoin="round"/>
<path d="M113.05 28.95L110.929 31.0713" stroke="#4CAF4F" stroke-width="1.5" stroke-linecap="round" stroke-linejoin="round"/>
<path d="M110.928 16.929L113.05 19.0503" stroke="#4CAF4F" stroke-width="1.5" stroke-linecap="round" stroke-linejoin="round"/>
<path d="M122.95 28.95L125.071 31.0713" stroke="#4CAF4F" stroke-width="1.5" stroke-linecap="round" stroke-linejoin="round"/>
</svg>
