<svg width="76" height="17" viewBox="0 0 76 17" fill="none" xmlns="http://www.w3.org/2000/svg">
<path d="M0.770597 1.36364H2.90128L6.60582 10.4091H6.74219L10.4467 1.36364H12.5774V13H10.907V4.57955H10.799L7.36719 12.983H5.98082L2.54901 4.57386H2.44105V13H0.770597V1.36364ZM18.6697 13.1761C17.8516 13.1761 17.1375 12.9886 16.5277 12.6136C15.9179 12.2386 15.4444 11.714 15.1072 11.0398C14.7701 10.3655 14.6016 9.57765 14.6016 8.67614C14.6016 7.77083 14.7701 6.97917 15.1072 6.30114C15.4444 5.62311 15.9179 5.09659 16.5277 4.72159C17.1375 4.34659 17.8516 4.15909 18.6697 4.15909C19.4879 4.15909 20.2019 4.34659 20.8118 4.72159C21.4216 5.09659 21.8951 5.62311 22.2322 6.30114C22.5694 6.97917 22.7379 7.77083 22.7379 8.67614C22.7379 9.57765 22.5694 10.3655 22.2322 11.0398C21.8951 11.714 21.4216 12.2386 20.8118 12.6136C20.2019 12.9886 19.4879 13.1761 18.6697 13.1761ZM18.6754 11.75C19.2057 11.75 19.6451 11.6098 19.9936 11.3295C20.3421 11.0492 20.5997 10.6761 20.7663 10.2102C20.9368 9.74432 21.022 9.23106 21.022 8.67045C21.022 8.11364 20.9368 7.60227 20.7663 7.13636C20.5997 6.66667 20.3421 6.28977 19.9936 6.00568C19.6451 5.72159 19.2057 5.57955 18.6754 5.57955C18.1413 5.57955 17.6982 5.72159 17.3459 6.00568C16.9974 6.28977 16.7379 6.66667 16.5675 7.13636C16.4008 7.60227 16.3175 8.11364 16.3175 8.67045C16.3175 9.23106 16.4008 9.74432 16.5675 10.2102C16.7379 10.6761 16.9974 11.0492 17.3459 11.3295C17.6982 11.6098 18.1413 11.75 18.6754 11.75ZM26.3331 7.81818V13H24.6342V4.27273H26.2649V5.69318H26.3729C26.5736 5.23106 26.888 4.85985 27.3161 4.57955C27.7479 4.29924 28.2914 4.15909 28.9467 4.15909C29.5414 4.15909 30.0623 4.28409 30.5092 4.53409C30.9562 4.7803 31.3028 5.14773 31.549 5.63636C31.7952 6.125 31.9183 6.72917 31.9183 7.44886V13H30.2195V7.65341C30.2195 7.02083 30.0547 6.52652 29.7251 6.17045C29.3956 5.81061 28.9429 5.63068 28.3672 5.63068C27.9732 5.63068 27.6229 5.71591 27.3161 5.88636C27.013 6.05682 26.7725 6.30682 26.5945 6.63636C26.4202 6.96212 26.3331 7.35606 26.3331 7.81818ZM38.4311 16.2727V4.27273H40.0902V5.6875H40.2322C40.3307 5.50568 40.4728 5.29545 40.6584 5.05682C40.844 4.81818 41.1016 4.60985 41.4311 4.43182C41.7607 4.25 42.1963 4.15909 42.7379 4.15909C43.4425 4.15909 44.0713 4.33712 44.6243 4.69318C45.1773 5.04924 45.611 5.5625 45.9254 6.23295C46.2436 6.90341 46.4027 7.71023 46.4027 8.65341C46.4027 9.59659 46.2455 10.4053 45.9311 11.0795C45.6167 11.75 45.1849 12.267 44.6357 12.6307C44.0864 12.9905 43.4595 13.1705 42.755 13.1705C42.2247 13.1705 41.791 13.0814 41.4538 12.9034C41.1205 12.7254 40.8591 12.517 40.6697 12.2784C40.4804 12.0398 40.3345 11.8277 40.2322 11.642H40.13V16.2727H38.4311ZM40.0959 8.63636C40.0959 9.25 40.1849 9.78788 40.3629 10.25C40.541 10.7121 40.7985 11.0739 41.1357 11.3352C41.4728 11.5928 41.8857 11.7216 42.3743 11.7216C42.8819 11.7216 43.3061 11.5871 43.647 11.3182C43.9879 11.0455 44.2455 10.6761 44.4197 10.2102C44.5978 9.74432 44.6868 9.2197 44.6868 8.63636C44.6868 8.06061 44.5997 7.54356 44.4254 7.08523C44.255 6.62689 43.9974 6.26515 43.6527 6C43.3118 5.73485 42.8857 5.60227 42.3743 5.60227C41.8819 5.60227 41.4652 5.72917 41.1243 5.98295C40.7872 6.23674 40.5315 6.59091 40.3572 7.04545C40.183 7.5 40.0959 8.0303 40.0959 8.63636ZM48.3061 13V4.27273H49.9482V5.65909H50.0391C50.1982 5.18939 50.4785 4.82008 50.88 4.55114C51.2853 4.27841 51.7436 4.14205 52.255 4.14205C52.361 4.14205 52.486 4.14583 52.63 4.15341C52.7777 4.16098 52.8932 4.17045 52.9766 4.18182V5.80682C52.9084 5.78788 52.7872 5.76705 52.6129 5.74432C52.4387 5.7178 52.2644 5.70455 52.0902 5.70455C51.6887 5.70455 51.3307 5.78977 51.0163 5.96023C50.7057 6.12689 50.4595 6.35985 50.2777 6.65909C50.0959 6.95455 50.005 7.29167 50.005 7.67045V13H48.3061ZM57.8104 13.1761C56.9922 13.1761 56.2782 12.9886 55.6683 12.6136C55.0585 12.2386 54.585 11.714 54.2479 11.0398C53.9107 10.3655 53.7422 9.57765 53.7422 8.67614C53.7422 7.77083 53.9107 6.97917 54.2479 6.30114C54.585 5.62311 55.0585 5.09659 55.6683 4.72159C56.2782 4.34659 56.9922 4.15909 57.8104 4.15909C58.6286 4.15909 59.3426 4.34659 59.9524 4.72159C60.5623 5.09659 61.0357 5.62311 61.3729 6.30114C61.71 6.97917 61.8786 7.77083 61.8786 8.67614C61.8786 9.57765 61.71 10.3655 61.3729 11.0398C61.0357 11.714 60.5623 12.2386 59.9524 12.6136C59.3426 12.9886 58.6286 13.1761 57.8104 13.1761ZM57.8161 11.75C58.3464 11.75 58.7857 11.6098 59.1342 11.3295C59.4827 11.0492 59.7403 10.6761 59.907 10.2102C60.0774 9.74432 60.1626 9.23106 60.1626 8.67045C60.1626 8.11364 60.0774 7.60227 59.907 7.13636C59.7403 6.66667 59.4827 6.28977 59.1342 6.00568C58.7857 5.72159 58.3464 5.57955 57.8161 5.57955C57.282 5.57955 56.8388 5.72159 56.4865 6.00568C56.138 6.28977 55.8786 6.66667 55.7081 7.13636C55.5414 7.60227 55.4581 8.11364 55.4581 8.67045C55.4581 9.23106 55.5414 9.74432 55.7081 10.2102C55.8786 10.6761 56.138 11.0492 56.4865 11.3295C56.8388 11.6098 57.282 11.75 57.8161 11.75ZM67.9283 4.27273V5.63636H62.9964V4.27273H67.9283ZM64.3487 13V3.26136C64.3487 2.71591 64.468 2.26326 64.7067 1.90341C64.9453 1.53977 65.2616 1.26894 65.6555 1.09091C66.0495 0.90909 66.4775 0.818181 66.9396 0.818181C67.2805 0.818181 67.5722 0.84659 67.8146 0.903409C68.0571 0.956439 68.237 1.00568 68.3544 1.05114L67.9567 2.42614C67.8771 2.40341 67.7749 2.37689 67.6499 2.34659C67.5249 2.3125 67.3733 2.29545 67.1953 2.29545C66.7824 2.29545 66.487 2.39773 66.3089 2.60227C66.1347 2.80682 66.0476 3.10227 66.0476 3.48864V13H64.3487ZM69.6811 13V4.27273H71.38V13H69.6811ZM70.5391 2.92614C70.2436 2.92614 69.9898 2.82765 69.7777 2.63068C69.5694 2.42992 69.4652 2.19129 69.4652 1.91477C69.4652 1.63447 69.5694 1.39583 69.7777 1.19886C69.9898 0.998106 70.2436 0.897727 70.5391 0.897727C70.8345 0.897727 71.0864 0.998106 71.2947 1.19886C71.5069 1.39583 71.6129 1.63447 71.6129 1.91477C71.6129 2.19129 71.5069 2.42992 71.2947 2.63068C71.0864 2.82765 70.8345 2.92614 70.5391 2.92614ZM75.3643 1.36364V13H73.6655V1.36364H75.3643Z" fill="white"/>
</svg>
