<svg width="142" height="52" viewBox="0 0 142 52" fill="none" xmlns="http://www.w3.org/2000/svg">
<rect width="142" height="52" rx="4" fill="#4CAF4F"/>
<path d="M33.7706 20.3636H35.9013L39.6058 29.4091H39.7422L43.4467 20.3636H45.5774V32H43.907V23.5795H43.799L40.3672 31.983H38.9808L35.549 23.5739H35.4411V32H33.7706V20.3636ZM51.6697 32.1761C50.8516 32.1761 50.1375 31.9886 49.5277 31.6136C48.9179 31.2386 48.4444 30.714 48.1072 30.0398C47.7701 29.3655 47.6016 28.5777 47.6016 27.6761C47.6016 26.7708 47.7701 25.9792 48.1072 25.3011C48.4444 24.6231 48.9179 24.0966 49.5277 23.7216C50.1375 23.3466 50.8516 23.1591 51.6697 23.1591C52.4879 23.1591 53.2019 23.3466 53.8118 23.7216C54.4216 24.0966 54.8951 24.6231 55.2322 25.3011C55.5694 25.9792 55.7379 26.7708 55.7379 27.6761C55.7379 28.5777 55.5694 29.3655 55.2322 30.0398C54.8951 30.714 54.4216 31.2386 53.8118 31.6136C53.2019 31.9886 52.4879 32.1761 51.6697 32.1761ZM51.6754 30.75C52.2057 30.75 52.6451 30.6098 52.9936 30.3295C53.3421 30.0492 53.5997 29.6761 53.7663 29.2102C53.9368 28.7443 54.022 28.2311 54.022 27.6705C54.022 27.1136 53.9368 26.6023 53.7663 26.1364C53.5997 25.6667 53.3421 25.2898 52.9936 25.0057C52.6451 24.7216 52.2057 24.5795 51.6754 24.5795C51.1413 24.5795 50.6982 24.7216 50.3459 25.0057C49.9974 25.2898 49.7379 25.6667 49.5675 26.1364C49.4008 26.6023 49.3175 27.1136 49.3175 27.6705C49.3175 28.2311 49.4008 28.7443 49.5675 29.2102C49.7379 29.6761 49.9974 30.0492 50.3459 30.3295C50.6982 30.6098 51.1413 30.75 51.6754 30.75ZM59.3331 26.8182V32H57.6342V23.2727H59.2649V24.6932H59.3729C59.5736 24.2311 59.888 23.8598 60.3161 23.5795C60.7479 23.2992 61.2914 23.1591 61.9467 23.1591C62.5414 23.1591 63.0623 23.2841 63.5092 23.5341C63.9562 23.7803 64.3028 24.1477 64.549 24.6364C64.7952 25.125 64.9183 25.7292 64.9183 26.4489V32H63.2195V26.6534C63.2195 26.0208 63.0547 25.5265 62.7251 25.1705C62.3956 24.8106 61.9429 24.6307 61.3672 24.6307C60.9732 24.6307 60.6229 24.7159 60.3161 24.8864C60.013 25.0568 59.7725 25.3068 59.5945 25.6364C59.4202 25.9621 59.3331 26.3561 59.3331 26.8182ZM71.4311 35.2727V23.2727H73.0902V24.6875H73.2322C73.3307 24.5057 73.4728 24.2955 73.6584 24.0568C73.844 23.8182 74.1016 23.6098 74.4311 23.4318C74.7607 23.25 75.1963 23.1591 75.7379 23.1591C76.4425 23.1591 77.0713 23.3371 77.6243 23.6932C78.1773 24.0492 78.611 24.5625 78.9254 25.233C79.2436 25.9034 79.4027 26.7102 79.4027 27.6534C79.4027 28.5966 79.2455 29.4053 78.9311 30.0795C78.6167 30.75 78.1849 31.267 77.6357 31.6307C77.0864 31.9905 76.4595 32.1705 75.755 32.1705C75.2247 32.1705 74.791 32.0814 74.4538 31.9034C74.1205 31.7254 73.8591 31.517 73.6697 31.2784C73.4804 31.0398 73.3345 30.8277 73.2322 30.642H73.13V35.2727H71.4311ZM73.0959 27.6364C73.0959 28.25 73.1849 28.7879 73.3629 29.25C73.541 29.7121 73.7985 30.0739 74.1357 30.3352C74.4728 30.5928 74.8857 30.7216 75.3743 30.7216C75.8819 30.7216 76.3061 30.5871 76.647 30.3182C76.9879 30.0455 77.2455 29.6761 77.4197 29.2102C77.5978 28.7443 77.6868 28.2197 77.6868 27.6364C77.6868 27.0606 77.5997 26.5436 77.4254 26.0852C77.255 25.6269 76.9974 25.2652 76.6527 25C76.3118 24.7348 75.8857 24.6023 75.3743 24.6023C74.8819 24.6023 74.4652 24.7292 74.1243 24.983C73.7872 25.2367 73.5315 25.5909 73.3572 26.0455C73.183 26.5 73.0959 27.0303 73.0959 27.6364ZM81.3061 32V23.2727H82.9482V24.6591H83.0391C83.1982 24.1894 83.4785 23.8201 83.88 23.5511C84.2853 23.2784 84.7436 23.142 85.255 23.142C85.361 23.142 85.486 23.1458 85.63 23.1534C85.7777 23.161 85.8932 23.1705 85.9766 23.1818V24.8068C85.9084 24.7879 85.7872 24.767 85.6129 24.7443C85.4387 24.7178 85.2644 24.7045 85.0902 24.7045C84.6887 24.7045 84.3307 24.7898 84.0163 24.9602C83.7057 25.1269 83.4595 25.3598 83.2777 25.6591C83.0959 25.9545 83.005 26.2917 83.005 26.6705V32H81.3061ZM90.8104 32.1761C89.9922 32.1761 89.2782 31.9886 88.6683 31.6136C88.0585 31.2386 87.585 30.714 87.2479 30.0398C86.9107 29.3655 86.7422 28.5777 86.7422 27.6761C86.7422 26.7708 86.9107 25.9792 87.2479 25.3011C87.585 24.6231 88.0585 24.0966 88.6683 23.7216C89.2782 23.3466 89.9922 23.1591 90.8104 23.1591C91.6286 23.1591 92.3426 23.3466 92.9524 23.7216C93.5623 24.0966 94.0357 24.6231 94.3729 25.3011C94.71 25.9792 94.8786 26.7708 94.8786 27.6761C94.8786 28.5777 94.71 29.3655 94.3729 30.0398C94.0357 30.714 93.5623 31.2386 92.9524 31.6136C92.3426 31.9886 91.6286 32.1761 90.8104 32.1761ZM90.8161 30.75C91.3464 30.75 91.7857 30.6098 92.1342 30.3295C92.4827 30.0492 92.7403 29.6761 92.907 29.2102C93.0774 28.7443 93.1626 28.2311 93.1626 27.6705C93.1626 27.1136 93.0774 26.6023 92.907 26.1364C92.7403 25.6667 92.4827 25.2898 92.1342 25.0057C91.7857 24.7216 91.3464 24.5795 90.8161 24.5795C90.282 24.5795 89.8388 24.7216 89.4865 25.0057C89.138 25.2898 88.8786 25.6667 88.7081 26.1364C88.5414 26.6023 88.4581 27.1136 88.4581 27.6705C88.4581 28.2311 88.5414 28.7443 88.7081 29.2102C88.8786 29.6761 89.138 30.0492 89.4865 30.3295C89.8388 30.6098 90.282 30.75 90.8161 30.75ZM100.928 23.2727V24.6364H95.9964V23.2727H100.928ZM97.3487 32V22.2614C97.3487 21.7159 97.468 21.2633 97.7067 20.9034C97.9453 20.5398 98.2616 20.2689 98.6555 20.0909C99.0495 19.9091 99.4775 19.8182 99.9396 19.8182C100.281 19.8182 100.572 19.8466 100.815 19.9034C101.057 19.9564 101.237 20.0057 101.354 20.0511L100.957 21.4261C100.877 21.4034 100.775 21.3769 100.65 21.3466C100.525 21.3125 100.373 21.2955 100.195 21.2955C99.7824 21.2955 99.487 21.3977 99.3089 21.6023C99.1347 21.8068 99.0476 22.1023 99.0476 22.4886V32H97.3487ZM102.681 32V23.2727H104.38V32H102.681ZM103.539 21.9261C103.244 21.9261 102.99 21.8277 102.778 21.6307C102.569 21.4299 102.465 21.1913 102.465 20.9148C102.465 20.6345 102.569 20.3958 102.778 20.1989C102.99 19.9981 103.244 19.8977 103.539 19.8977C103.835 19.8977 104.086 19.9981 104.295 20.1989C104.507 20.3958 104.613 20.6345 104.613 20.9148C104.613 21.1913 104.507 21.4299 104.295 21.6307C104.086 21.8277 103.835 21.9261 103.539 21.9261ZM108.364 20.3636V32H106.665V20.3636H108.364Z" fill="white"/>
</svg>
